HIERARCHY
ROOT pelvis
{
  OFFSET 0 100 0
  CHANNELS 6 Xposition Yposition Zposition Zrotation Xrotation Yrotation
  JOINT pelvis_right_femur
  {
    OFFSET -10.78128 -3.44521 -0.5502486
    CHANNELS 3 Zrotation Xrotation Yrotation
    JOINT right_femur_tibia
    {
      OFFSET -0.8047443 -44.0398 -0.1307829
      CHANNELS 3 Zrotation Xrotation Yrotation
      JOINT right_tibia_foot
      {
        OFFSET 3.006224 -47.83518 -5
        CHANNELS 3 Zrotation Xrotation Yrotation
        End Site
        {
          OFFSET 0 -5 15
        }
      }
    }
  }
  JOINT pelvis_left_femur
  {
    OFFSET 10.78128 -3.44521 -0.5502486
    CHANNELS 3 Zrotation Xrotation Yrotation
    JOINT left_femur_tibia
    {
      OFFSET 0.8047443 -44.0398 -0.1307829
      CHANNELS 3 Zrotation Xrotation Yrotation
      JOINT left_tibia_foot
      {
        OFFSET -4.370144 -48.10324 -4.275266
        CHANNELS 3 Zrotation Xrotation Yrotation
        End Site
        {
          OFFSET 0 -5 15
        }
      }
    }
  }
  JOINT pelvis_spine1
  {
    OFFSET 0 6.468898 -3.129235
    CHANNELS 3 Zrotation Xrotation Yrotation
    JOINT spine1
    {
      OFFSET 0 23.15396 4.99043
      CHANNELS 3 Zrotation Xrotation Yrotation
      JOINT spine2
      {
        OFFSET 0 20.79997 -5.064912
        CHANNELS 3 Zrotation Xrotation Yrotation
        JOINT neck
        {
          OFFSET 0 14.38658 9.616178
          CHANNELS 3 Zrotation Xrotation Yrotation
          End Site
          {
            OFFSET 0 20 0
          }
        }
      }
      JOINT right_manubrium
      {
        OFFSET -5.722621 16.35077 3.967754
        CHANNELS 3 Zrotation Xrotation Yrotation
        JOINT right_clavicle
        {
          OFFSET -13.16364 1.694482 -4.693211
          CHANNELS 3 Zrotation Xrotation Yrotation
          JOINT right_humerus
          {
            OFFSET -28.5034 -0.3100689 -2.792744
            CHANNELS 3 Zrotation Xrotation Yrotation
            JOINT right_radius
            {
              OFFSET -25.15693 0.02248979 -1.271978
              CHANNELS 3 Zrotation Xrotation Yrotation
              End Site
              {
                OFFSET -15 0 0
              }
            }
          }
        }
      }
      JOINT left_manubrium
      {
        OFFSET 5.722621 16.35077 3.967754
        CHANNELS 3 Zrotation Xrotation Yrotation
        JOINT left_clavicle
        {
          OFFSET 13.16364 1.694482 -4.693211
          CHANNELS 3 Zrotation Xrotation Yrotation
          JOINT left_humerus
          {
            OFFSET 29.39168 -1.063119 -2.237045
            CHANNELS 3 Zrotation Xrotation Yrotation
            JOINT left_radius
            {
              OFFSET 24.59957 -0.9528479 0.9047498
              CHANNELS 3 Zrotation Xrotation Yrotation
              End Site
              {
                OFFSET 15 -0 -0
              }
            }
          }
        }
      }
    }
  }
}
MOTION
Frames: 9
Frame Time: 0.0416666666667
0 103.5113 0 0.004111959 -0.4745617 -0.003648467 4.309151 -19.41254 8.392231 -0 38.52572 -0 -6.453157 -13.76836 -3.376282 -6.192212 10.27452 -21.18194 -0 6.128087 -0 8.1983 -17.83226 25.56068 -3.05242 -3.579195 4.257259 2.661847 9.691 -7.969971 1.138454 22.05043 6.735004 3.010153 -25.12849 9.26378 6.057117 -19.71467 11.69078 85.66079 34.21123 -18.88026 -0 0 15.63363 -8.736959 8.821463 4.730159 6.624883 -20.50824 -0.860358 -93.5209 23.80504 21.60018 0 0 -14.68835 11.51731 18.19256 0.7983009
0.2583589 104.5201 2.054828 -0.2324565 -0.4567455 -0.03934968 4.483599 -20.60244 7.928706 -0 37.31764 -0 -6.523791 -12.93703 -3.323986 -5.972314 10.55215 -20.69136 -0 6.371386 -0 7.387104 -18.6197 24.9995 -2.964774 -3.310068 4.074958 2.786492 9.631422 -8.056095 1.138353 21.96868 6.814242 3.041681 -25.21495 9.31159 5.844827 -19.4697 11.66013 85.67565 33.64555 -18.9594 -0 0 15.41005 -9.139458 8.871321 4.814443 6.896139 -20.75803 -0.7006113 -93.31693 23.48544 21.12278 0 0 -14.72675 11.59542 18.26228 0.5063936
0.5138578 105.1639 4.585709 -1.029031 0.8980426 -0.0944779 5.919252 -26.99984 7.093015 -0 28.39621 -0 -6.482003 -9.801321 -2.684195 -5.522927 11.71088 -19.30962 -0 7.121748 -0 5.128854 -22.23913 23.40941 -2.8994 -2.27142 3.852159 3.463187 9.29571 -8.428416 1.334052 20.94937 7.187342 3.429276 -26.31806 9.783733 5.361305 -18.72759 11.44017 85.54963 32.81791 -19.57369 -0 0 15.05301 -9.347969 9.168936 4.694563 8.150581 -21.54533 0.1475085 -93.08817 22.80691 19.83626 0 0 -15.58207 11.73312 17.46208 -0.185473
0.7305026 105.6163 7.526206 -1.299248 1.432834 -0.02553032 6.467469 -29.7259 6.371652 -0 23.48602 -0 -6.693644 -7.887624 -2.235067 -5.359416 12.44733 -18.18551 -0 8.074064 -0 3.761216 -23.75254 22.05017 -2.817192 -1.684802 3.621914 3.603738 9.130595 -8.510736 1.437289 20.52273 7.379592 3.700036 -26.49115 9.898578 5.015961 -18.1722 11.29827 85.9157 32.24172 -20.06748 -0 0 14.30905 -9.67469 9.307601 4.709132 8.641484 -21.98661 0.1945204 -92.57944 22.6656 18.65742 0 0 -16.36952 11.85048 16.84733 -0.566227
0.866526 105.9942 11.1638 -1.564384 1.778034 0.2807434 6.86897 -31.82771 5.171477 -0 18.28047 -0 -7.213908 -5.605923 -1.711274 -5.085837 13.61272 -16.50888 -0 10.3647 -0 1.775613 -24.6737 19.873 -2.519227 -1.127533 3.163151 3.594527 8.944063 -8.574394 1.50504 20.27404 7.565598 3.993029 -26.27941 9.862951 4.434967 -17.29453 11.101 86.87493 31.31023 -20.96994 -0 0 12.76457 -10.28539 9.444261 4.717496 9.023395 -22.54099 -0.08339718 -91.60898 22.5695 16.74335 0 0 -17.51258 12.22318 16.10245 -1.34117
0.9185189 106.4425 15.49711 -1.804399 1.822735 0.767355 7.111869 -32.27535 4.118923 -0 15.16091 -0 -7.79988 -3.938905 -1.360318 -4.751206 14.67871 -15.02349 -0 13.72946 -0 -0.03824061 -24.27833 17.82863 -2.037654 -0.9293547 2.691626 3.502714 8.860437 -8.652711 1.48677 20.30244 7.654806 4.144258 -25.87631 9.702943 3.863077 -16.48894 10.95429 87.99651 30.44537 -21.96169 -0 0 11.12193 -10.8488 9.573065 4.660046 9.10804 -22.96645 -0.5074071 -90.70714 22.46647 15.06378 0 0 -18.42877 12.7136 15.53298 -2.240677
0.8905895 107.1046 20.56251 -2.082136 1.474577 1.317533 7.327054 -31.15491 3.120753 -0 13.42743 -0 -8.494327 -2.611264 -1.149596 -4.312607 15.47791 -13.49017 -0 18.98671 -0 -1.884668 -22.54603 15.85737 -1.322835 -1.016515 2.24511 3.351689 8.959348 -8.752918 1.399825 20.57388 7.64998 4.152471 -25.27667 9.434541 3.180392 -15.73657 10.86981 89.30511 29.34673 -23.03207 -0 0 9.340801 -11.55053 9.763336 4.560829 8.970305 -23.3843 -1.059485 -89.88026 22.1815 13.53301 0 0 -19.04775 13.38551 15.10202 -3.408035
0.8203544 108.1041 26.22541 -2.346208 0.7522043 1.753661 7.594511 -28.63639 2.433971 -0 12.98876 -0 -9.159633 -1.815056 -1.098118 -3.877342 15.44672 -12.10973 -0 25.77637 -0 -3.322927 -19.72035 14.44735 -0.5278956 -1.299938 2.024279 3.185207 9.328413 -8.835962 1.279604 20.96981 7.540987 4.01722 -24.64075 9.123278 2.523969 -15.29307 10.91334 90.48525 28.20052 -23.87646 -0 0 7.889011 -12.33428 10.05131 4.508421 8.605468 -23.74595 -1.652919 -89.37414 21.71256 12.63034 0 0 -19.16779 14.01012 14.79715 -4.492549
0.7424402 109.5163 32.27454 -2.512472 -0.4152551 1.907088 7.861246 -24.83705 1.995773 -0 13.2158 -0 -9.787732 -1.560324 -1.183101 -3.500663 14.14795 -10.82775 -0 33.91507 -0 -4.221498 -16.16471 13.72987 0.2106882 -1.616134 2.132711 2.986724 10.0096 -8.837323 1.174967 21.44081 7.303726 3.765219 -23.96488 8.778041 1.900499 -15.27683 11.1088 91.44264 26.96683 -24.31123 -0 0 6.935155 -13.32227 10.45265 4.609226 8.037651 -24.07486 -2.303969 -89.2296 21.08984 12.45952 0 0 -18.70717 14.45926 14.60668 -5.326233
